<svg xmlns="http://www.w3.org/2000/svg" fill="none" viewBox="0 0 171 48">
  <path fill="#039AD4" d="M167.255 33.487h-7.949v6.55h-1.744V26.452h1.744v5.399h7.949v-5.399H169v13.585h-1.745v-6.55Zm-20.035-5.654c-1.457 0-2.705.533-3.752 1.602-1.048 1.071-1.568 2.367-1.568 3.885 0 .977.239 1.889.714 2.738a5.077 5.077 0 0 0 1.935 1.957c.808.46 1.701.69 2.671.69.97 0 1.864-.23 2.67-.69a5.084 5.084 0 0 0 1.937-1.957 5.52 5.52 0 0 0 .714-2.738c0-1.518-.525-2.814-1.577-3.885-1.047-1.069-2.295-1.602-3.744-1.602Zm.009-1.714c2.098 0 3.842.754 5.222 2.268 1.256 1.377 1.886 3.011 1.886 4.896 0 1.893-.663 3.548-1.992 4.964-1.325 1.415-3.034 2.123-5.116 2.123-2.094 0-3.807-.708-5.132-2.123-1.329-1.415-1.992-3.07-1.992-4.964 0-1.876.628-3.505 1.885-4.882 1.38-1.523 3.128-2.282 5.239-2.282Zm-23.652 12.204h11.232l-5.756-12.818-5.476 12.818Zm-1.705 4.451h-1.846v-4.452h1.473l7.223-16.655h.638l7.629 16.655h1.423v4.452h-1.847v-2.737h-14.692v2.737h-.001Zm-10.625-14.941c-1.457 0-2.705.533-3.753 1.602-1.047 1.071-1.568 2.367-1.568 3.885 0 .977.239 1.889.714 2.738a5.087 5.087 0 0 0 1.936 1.957c.808.46 1.701.69 2.671.69.97 0 1.863-.23 2.671-.69a5.081 5.081 0 0 0 1.936-1.957 5.53 5.53 0 0 0 .714-2.738c0-1.518-.526-2.814-1.577-3.885-1.047-1.069-2.295-1.602-3.744-1.602Zm.009-1.714c2.098 0 3.842.754 5.223 2.268 1.256 1.377 1.884 3.011 1.884 4.896 0 1.893-.662 3.548-1.991 4.964-1.326 1.415-3.034 2.123-5.116 2.123-2.094 0-3.807-.708-5.133-2.123-1.329-1.415-1.991-3.07-1.991-4.964 0-1.876.628-3.505 1.884-4.882 1.381-1.523 3.128-2.282 5.24-2.282Zm-16.902 1.688c-1.518 0-2.791.525-3.825 1.578-1.04 1.053-1.557 2.363-1.557 3.927 0 1.028.231 1.954.693 2.772.461.822 1.123 1.47 1.982 1.953a5.52 5.52 0 0 0 2.727.72c.94 0 1.825-.243 2.654-.729a5.319 5.319 0 0 0 1.98-2.03c.49-.871.733-1.782.733-2.733 0-.965-.242-1.877-.73-2.738a5.213 5.213 0 0 0-1.966-2.004 5.28 5.28 0 0 0-2.691-.716Zm-7.023-1.355h1.745v2.498c.692-.95 1.487-1.659 2.389-2.128.901-.468 1.905-.703 3.016-.703 1.936 0 3.59.695 4.967 2.08 1.377 1.386 2.065 3.058 2.065 5.007 0 1.997-.684 3.684-2.048 5.078-1.362 1.39-3.008 2.086-4.936 2.086a6.68 6.68 0 0 1-2.987-.674c-.911-.453-1.732-1.121-2.466-2.012V45h-1.745V26.452Zm-10.279 7.342v4.758h1.885c.89 0 1.526-.055 1.906-.17.381-.11.71-.353.979-.729.274-.375.41-.848.41-1.424 0-.741-.235-1.33-.705-1.774-.47-.44-1.09-.661-1.859-.661h-2.616Zm0-5.832v4.22H78.2c1.042 0 1.726-.043 2.042-.124.32-.085.619-.29.901-.613.282-.329.423-.758.423-1.3 0-.563-.145-1.033-.44-1.413-.294-.384-.603-.606-.927-.674-.325-.064-.991-.097-2-.097h-1.146Zm2.22 12.075h-3.963V26.452h3.902c1.488 0 2.56.341 3.218 1.018.654.683.983 1.48.983 2.393 0 1.377-.61 2.307-1.833 2.798 1.769.626 2.654 1.833 2.654 3.62 0 2.502-1.654 3.756-4.962 3.756Zm-17.404-18.37h10.54v1.792h-8.693v5.755h8.616v1.791h-8.616v7.242h8.616v1.79H61.868v-18.37Zm46.643-13.269c-.476 0-.916.119-1.317.358-.404.236-.724.57-.962 1a2.78 2.78 0 0 0 .003 2.73c.241.435.561.772.967 1.013.406.243.84.364 1.303.364.467 0 .911-.12 1.329-.36.42-.24.742-.563.967-.974.226-.409.339-.87.339-1.383 0-.782-.253-1.435-.761-1.96-.506-.527-1.129-.788-1.868-.788Zm3.43-.677v6.78h-.852v-1.166c-.36.445-.761.779-1.207 1a3.245 3.245 0 0 1-1.462.332c-.941 0-1.744-.348-2.411-1.041-.665-.696-.998-1.54-.998-2.535 0-.973.337-1.807 1.008-2.499.67-.691 1.48-1.039 2.426-1.039.545 0 1.039.117 1.482.351.44.235.828.588 1.164 1.062V7.719h.85v.002Zm-12.92 0h.851v2.857l3.101-2.857h1.172l-3.365 3.094 3.635 3.686h-1.211l-3.062-3.134-.27.242V14.5h-.852V7.72Zm-6.871 0v5.022l4.896-5.022h.066v6.78h-.851V9.518L91.403 14.5h-.105V7.72h.852Zm-3.612 3.512h-3.885V14.5h-.851V7.72h.851v2.694h3.885V7.721h.852v6.78h-.852v-3.268ZM76.932 7.72v5.022l4.895-5.022h.067v6.78h-.852V9.518L76.184 14.5h-.105V7.72h.853Zm-2.154 6.78h-.895l-2.248-4.944-2.212 4.944h-.917l3.04-6.78h.151l3.081 6.78Zm-12.91-9.168h.915v3.44l3.608-3.44h1.21l-4.335 4.112 4.675 5.056h-1.202l-3.956-4.282V14.5h-.915V5.333Z"/>
  <path fill="#039AD4" fill-rule="evenodd" d="M24 4.974c10.508 0 19.026 8.518 19.026 19.026 0 10.507-8.519 19.025-19.025 19.025-10.509 0-19.026-8.518-19.026-19.025 0-10.508 8.518-19.026 19.026-19.026ZM24 0c13.255 0 24 10.745 24 24S37.255 48 24 48 0 37.255 0 24C0 10.746 10.745 0 24 0Z" clip-rule="evenodd"/>
  <path fill="#039AD4" fill-rule="evenodd" d="M23.49 15.32a8.157 8.157 0 0 1 6.656 3.43l-1.288 1.188a6.436 6.436 0 1 0 .876 5.115h-5.436v-1.627h5.627v-.002l1.734-.004v.069a8.17 8.17 0 1 1-8.17-8.17Zm12.765 1.04c.888 0 1.607.791 1.607 1.766 0 .976-.72 1.767-1.607 1.767-.886 0-1.606-.79-1.606-1.767 0-.975.72-1.766 1.606-1.766Zm0 4.596c.888 0 1.607.792 1.607 1.768s-.72 1.766-1.607 1.766c-.886 0-1.606-.79-1.606-1.766s.72-1.768 1.606-1.768Zm1.467-.53c.657.507 1.087 1.347 1.087 2.298 0 1.55-1.143 2.808-2.554 2.808-1.41 0-2.553-1.257-2.553-2.808 0-.951.43-1.791 1.086-2.299-.656-.507-1.086-1.348-1.086-2.298 0-1.551 1.143-2.808 2.553-2.808s2.553 1.257 2.553 2.808c0 .95-.429 1.79-1.086 2.298Z" clip-rule="evenodd"/>
</svg>
